<svg width="54" height="23" viewBox="0 0 54 23" fill="none" xmlns="http://www.w3.org/2000/svg">
<g clip-path="url(#clip0_8026_23143)">
<path d="M53.324 11.032C53.4481 10.9853 53.5857 10.9899 53.7065 11.0446C53.8273 11.0994 53.9213 11.1999 53.968 11.324C54.0147 11.4481 54.0101 11.5857 53.9554 11.7065C53.9006 11.8272 53.8001 11.9213 53.676 11.968C48.448 13.928 44.201 17.523 40.924 22.765C40.8537 22.8775 40.7416 22.9574 40.6124 22.9872C40.4832 23.017 40.3475 22.9943 40.235 22.924C40.1226 22.8537 40.0426 22.7416 40.0128 22.6124C39.983 22.4832 40.0057 22.3475 40.076 22.235C43.466 16.811 47.886 13.072 53.324 11.032Z" fill="#2D2D2D"/>
<path d="M53.324 11.968C53.4481 12.0147 53.5857 12.0101 53.7065 11.9554C53.8273 11.9006 53.9213 11.8001 53.968 11.676C54.0147 11.5519 54.0101 11.4143 53.9554 11.2935C53.9006 11.1728 53.8001 11.0787 53.676 11.032C48.448 9.072 44.2 5.478 40.924 0.235003C40.8537 0.122551 40.7416 0.0426245 40.6124 0.0128062C40.4832 -0.0170121 40.3475 0.00572032 40.235 0.0760027C40.1226 0.146285 40.0426 0.25836 40.0128 0.387573C39.983 0.516785 40.0057 0.652551 40.076 0.765003C43.466 6.189 47.886 9.928 53.324 11.968Z" fill="#2D2D2D"/>
<path d="M53.5 12C53.6326 12 53.7598 11.9473 53.8536 11.8536C53.9473 11.7598 54 11.6326 54 11.5C54 11.3674 53.9473 11.2402 53.8536 11.1464C53.7598 11.0527 53.6326 11 53.5 11H0.5C0.367392 11 0.240215 11.0527 0.146447 11.1464C0.0526784 11.2402 0 11.3674 0 11.5C0 11.6326 0.0526784 11.7598 0.146447 11.8536C0.240215 11.9473 0.367392 12 0.5 12H53.5Z" fill="#2D2D2D"/>
</g>
<defs>
<clipPath id="clip0_8026_23143">
<rect width="54" height="23" fill="white"/>
</clipPath>
</defs>
</svg>
